# xmcd
#
# Track frame offsets:
#	150
#	19577
#	33785
#	48760
#	62742
#	73727
#	90252
#	105937
#	119920
#	137575
#	153122
#	166575
#	183230
#	192825
#
# Disc length: 2785 seconds
#
# Revision: 1
# Processed by: cddbd v1.5.2PL0 Copyright (c) Steve Scherf et al.
# Submitted via: audiograbber 1.80
#
DISCID=a30adf0e
DTITLE=Diversos - 014 Magic Piano Vol. 2
DYEAR=1992
DGENRE=Blues
TTITLE0=Ronda - Tia Aurora
TTITLE1=Carinhoso - Walter Calmon
TTITLE2=Chorando Pra Pixinguinha - Walter Calmon
TTITLE3=Apelo - Walter Calmon
TTITLE4=Fio de Cabelo - Odilon Caiado 
TTITLE5=Sábado - Em Flor - George Brass
TTITLE6=Negue Tia Aurora
TTITLE7=Chuvas de Verão - George Brass
TTITLE8=Casinha Branca - Nem Um Toque - George Brass
TTITLE9=A Paz - Um Dia De Domingo - George Brass
TTITLE10=Bilhete - Agostinho Silva
TTITLE11=Ternura Antiga - Agostinho Silva
TTITLE12=As Rosas Não Falam - Don Euclydes
TTITLE13=Cavalgada - Don Euclydes
EXTD=ID3G:   0 YEAR: 1992
EXTT0=
EXTT1=
EXTT2=
EXTT3=
EXTT4=
EXTT5=
EXTT6=
EXTT7=
EXTT8=
EXTT9=
EXTT10=
EXTT11=
EXTT12=
EXTT13=
PLAYORDER=
